<?xml version="1.0" encoding="UTF-8" standalone="no"?>
<!DOCTYPE svg PUBLIC "-//W3C//DTD SVG 1.1//EN" "http://www.w3.org/Graphics/SVG/1.1/DTD/svg11.dtd">
<svg width="100%" height="100%" viewBox="0 0 2402 2500" version="1.1" xmlns="http://www.w3.org/2000/svg" xmlns:xlink="http://www.w3.org/1999/xlink" xml:space="preserve" xmlns:serif="http://www.serif.com/" style="fill-rule:evenodd;clip-rule:evenodd;stroke-linejoin:round;stroke-miterlimit:2;">
    <path d="M858.289,52.87C467.427,83.082 135.101,109.517 119.995,111.405C76.566,120.846 36.914,149.169 18.032,188.822L1.038,222.81L4.814,1861.78L29.361,1912.76C44.467,1941.09 138.878,2073.26 242.73,2207.33C448.545,2475.45 463.651,2488.67 541.068,2498.11C563.727,2500 735.554,2492.45 918.711,2481.12C1103.76,2469.79 1402.1,2450.91 1579.59,2441.47C2340.54,2394.26 2300.89,2398.04 2346.2,2360.27C2400.96,2314.95 2395.3,2390.48 2399.07,1393.51C2400.96,549.471 2399.07,492.825 2385.86,468.278C2372.64,438.066 2346.2,419.184 1998.77,175.604C1766.52,11.329 1749.53,3.776 1645.67,1.888C1602.25,0 1247.26,24.547 858.289,52.87Z" style="fill:white;"/>
    <path d="M858.289,52.87C467.427,83.082 135.101,109.517 119.995,111.405C76.566,120.846 36.914,149.169 18.032,188.822L1.038,222.81L4.814,1861.78L29.361,1912.76C44.467,1941.09 138.878,2073.26 242.73,2207.33C448.545,2475.45 463.651,2488.67 541.068,2498.11C563.727,2500 735.554,2492.45 918.711,2481.12C1103.76,2469.79 1402.1,2450.91 1579.59,2441.47C2340.54,2394.26 2300.89,2398.04 2346.2,2360.27C2400.96,2314.95 2395.3,2390.48 2399.07,1393.51C2400.96,549.471 2399.07,492.825 2385.86,468.278C2372.64,438.066 2346.2,419.184 1998.77,175.604C1766.52,11.329 1749.53,3.776 1645.67,1.888C1602.25,0 1247.26,24.547 858.289,52.87ZM1736.31,160.498C1770.3,175.604 2010.1,341.767 2044.09,373.867C2053.53,383.308 2057.31,392.749 2051.64,396.526C2042.2,405.967 556.174,494.713 512.745,487.16C493.863,485.272 465.539,473.943 448.545,462.613C380.569,415.408 212.518,277.568 212.518,268.127C212.518,241.692 206.853,241.692 867.73,192.598C994.24,185.045 1203.83,169.94 1330.34,158.61C1604.13,137.84 1685.33,137.84 1736.31,160.498ZM2208.36,587.236C2219.69,598.565 2229.13,619.335 2232.91,640.106C2234.8,658.988 2236.69,1010.2 2234.8,1418.05C2232.91,2116.69 2231.02,2162.01 2217.8,2180.89C2210.25,2194.11 2195.15,2207.33 2181.93,2211.1C2149.83,2224.32 593.938,2313.07 561.838,2303.63C546.733,2299.85 525.962,2286.63 516.521,2275.3L497.639,2256.42L495.751,1501.13C493.863,970.544 495.751,736.405 501.415,715.634C505.192,700.529 518.409,681.647 527.85,674.094C541.068,664.653 633.591,657.1 950.811,638.218C1173.62,626.888 1519.16,606.118 1715.54,592.9C2187.59,564.577 2185.7,564.577 2208.36,587.236Z"/>
    <g transform="matrix(1.2316,0,0,1.2316,310.215,-322.012)">
        <text x="600.972px" y="2026.67px" style="font-family:'Andalus', serif;font-size:1599.78px;stroke:black;stroke-width:0.81px;">I</text>
    </g>
</svg>
